<svg t="1601987957053" class="icon" viewBox="0 0 1024 1024" version="1.1" xmlns="http://www.w3.org/2000/svg" p-id="34380" width="64" height="64"><path d="M145.4 688.9c79.5-29.2 122.5-43.4 138-48.2 14.3-3.7 27.9-9.7 40.2-17.8 7-4.2 13.4-9.4 19-15.3V605c-2.6-6.4-4.1-13.2-4.4-20.1-0.5-3.6-0.5-7.3 0-10.8L320.4 558c-12.3-11.2-22.2-24.9-28.7-40-4.4-10.5-8.9-20.4-12.4-31.3v-7.9c-8.4-7.4-16-15.8-22.5-24.7-9.9-14.2-17-29.9-21.2-46.5-7-20.6-9.6-42.3-7.5-64 1.5-12.9 4.4-25.6 8.9-37.9 2.1-6.2 4.6-12.1 7.5-17.9 0.1-23.1 1.7-46.3 4.9-69.2 2.7-23.8 7.1-47.3 13.3-70.5h-8.9c-11.1 0.1-22.3 1.4-33.1 3.5-11.6 2-22.9 5.4-33.6 10-11.8 5.7-22.9 12.4-33.1 20.4-11.7 9.2-21.7 20.4-29.7 33.1-9.6 14.9-17 31.3-21.7 48.2-4.7 16.7-8.1 33.7-10.2 51a410.4 410.4 0 0 0-2.7 56.5c-7.1 9.7-11.4 21.2-12.4 33.1-1.4 7.5-1.4 15.1 0 22.6 2 6.8 4.9 13.3 8.9 19.2 2.6 3.7 5.5 7.3 8.9 10.5 3.1 2.2 6.5 4.1 10.2 5.2l6.6 22.6c2.7 6.5 4.9 12.7 8 19.2 2.2 5.4 5.5 10.2 9.7 14.4 7.5 6.3 14.5 12.9 21.2 20.1 7 7.5 10.7 17.2 10.6 27.4v20.2c0.1 6.4-1 12.7-3.1 18.7-2.6 6.5-6.3 12.6-11.1 17.8-6.8 7.3-14.5 13.5-23 18.7-13.7 8.6-28.6 15-44.2 19.2-11.4 3.1-51.3 17.4-78.3 27v184.5h3.9c0-10.8 2.7-23 4.9-39.1v-4.3c4.2-37.3 22.3-71.6 50.8-96.6 23.3-18.1 49.8-31.9 78.3-40.5h5.8V689z m808.9-41.8c-11-4.7-21.2-11-30-18.7-6.9-6-12.4-13.4-16.4-21.8-3.1-7.4-4.8-15.1-5.3-23-0.9-12.7 0.9-25.5 5.3-37.4 1.7-3.9 4.1-7.6 7-10.8 3-3.2 6.4-6 10.2-8.2l11.4-10c4.4-4.2 7.9-9.2 10.2-14.8 3.1-6 5.8-12.3 8-18.7 0-7.4 4.4-15.3 6.2-23 5-1.6 9.7-4.3 13.7-7.9 3.9-4.4 7.3-9.4 9.7-14.8 3.6-7.9 5.8-16.3 6.6-24.7 0.9-6.6 0.9-13.4 0-20.1-1.2-4.4-2.8-8.9-4.9-13-1.1-3.7-3.4-6.9-6.6-9.1 0.4-19.8-0.9-39.5-3.6-59.2-2.7-18.1-6.6-35.9-11.9-53.5-6.8-18.6-16.5-36.1-28.7-51.8-5.8-7.8-12.6-14.6-20.3-20.4-18.8-14.4-40.2-25.1-63.3-31.8-12.6-3.4-25.5-5.2-38.4-5.2h-17.6c6.3 21.5 10.8 43.4 13.7 65.7 3.1 21.9 4.9 43.9 5.3 66.1 7.6 13.5 13 28.2 15.9 43.4 2.5 16.1 2.5 32.6 0 48.7-2.2 18.5-7.1 36.4-14.6 53.5-8 16.7-19.6 31.6-34.1 43.5l-3.1 9.6v2.6c-4.2 10.5-8.5 20.9-13.3 31.3-8.7 20.9-23 39.1-41.1 53v19.2c0 8.5-2 16.7-5.8 24.4 7.3 5.7 15.3 10.3 23.9 13.9 14.3 6.2 29 11.1 44.2 14.8 15.1 4.6 29.9 10.2 44.2 17L875 676l25.2 10.8c22 8.7 42.6 20.6 61 35.2 21.9 19.2 38.1 43.8 46.9 71.4 5 16.9 7.1 34.4 9.7 51.8 1.1 7.2 1.4 14.3 2.7 21.8h2.7V677.1c-14.4-6.5-29.2-12.3-44.2-17.4 0.1 0-12.2-7.7-24.7-12.6z" p-id="34381"></path><path d="M955.2 820.2c-5.4-16.9-15.5-31.9-29.2-43.4-14.4-11-30.2-20.1-46.9-27-17.2-7-93.3-43.5-112.2-46.5-17.8-4.9-35.5-10.8-52.6-17.8-15.1-6.2-28.9-14.9-41.1-25.7-9.5-8.4-17-18.6-22.2-30-4.4-9.8-7-20.6-7.5-31.3-1-17.8 1.8-35.6 8.4-52.2 2.3-5.4 5.5-10.5 9.7-14.8 4.1-4.2 8.5-8 13.3-11.3 5.9-4.2 11.3-8.9 16.4-13.9 5.8-5.7 10.6-12.3 14.2-19.6 3.9-8.7 7.5-17.4 11.1-26.1 3.6-8.7 5.8-20.9 8.4-31.3 5.9-2.6 11.2-6.5 15.5-11.3 5.8-5.8 10.6-12.6 14.2-20.1 4.7-10.8 7.8-22.3 8.9-34 1.6-9.1 1.6-18.3 0-27.4-1.2-6.3-3.3-12.4-6.2-18.2-1.6-5-4.8-9.6-9.2-12.7 0.6-27.2-1-54.4-4.9-81.4-3.2-25-8.9-49.6-16.7-73.5-7.6-25.7-19.8-50.1-35.8-71.8-8-10.6-17.6-19.9-28.3-27.8-11.9-9.8-25-18.3-38.9-25.2-15.6-7.2-31.6-13.1-48-17.8-17.2-4.7-35.1-7-53.1-7-14.9 0.2-29.7 1.7-44.2 4.3-15.3 2.8-30 7.5-44.2 13.9-37.2 15.1-68.9 40.7-91.4 73.5-13.2 20.4-23 42.7-29.2 66.1-12.1 47.9-17.1 97.2-15 146.6-4.9 6.5-8.9 13.7-11.4 21.3-3.1 7.1-5.5 14.5-7 22.2-0.9 10.5 0.2 20.9 3.6 30.9 2.2 9.5 6 18.5 11.4 26.6 3.7 5.2 7.9 10 12.4 14.4 4.1 3.2 8.7 5.5 13.7 7l9.7 31.8c3.1 8.7 6.6 17.4 10.2 25.7 3.1 7.5 7.8 14.3 13.7 20.1 10.3 8.7 20.1 17.8 29.2 27.4 9.4 10.3 14.8 23.6 15 37.4v28.6c-0.1 8.7-1.6 17.4-4.4 25.7-3.7 8.9-9 17.1-15.5 24.4-9.1 9.7-19.4 18.2-30.9 25.2-17.6 12.1-37.2 21-57.9 26.6-22.5 6-118.9 41.4-139.7 49.1-19.8 6.6-38.3 16.9-54.4 30-16 15.1-26.1 35.3-28.7 57-5.9 25.7-7.3 52.2-3.9 78.3-0.4 17.7 5 35.1 15.5 49.6 15.8 7.9 32.6 13.5 50 17 132.6 27 267.5 40.6 402.7 40.9 132.7 1.6 264.9-16.3 392.1-53.1 10.2-2.7 19.6-7.8 27.4-14.8 5.2-10.2 8.5-21.3 9.7-32.6 2.2-15.1 3.2-30.4 3.1-45.7 0-15.6-0.4-19.2-0.4-19.2-1-13.3-5.1-25.8-8.8-38.6l0.3 1.5z m-375.3 97.5c-5 6.5-10.7 12.7-16.7 18.2-5.9 5.8-12.4 11.1-19.4 15.6-4.3 3.6-9.5 5.8-15 6.5-5.2-1-10-3.1-14.2-6-7-4.7-13.7-10-19.9-15.6-6.3-5.7-12.1-11.9-17.2-18.7-3.8-3.8-6.3-8.6-7-13.9 0.2-8.5 1.4-17 3.1-25.2 0-10.8 4.9-23 7.5-35.2 2.6-12.2 5.8-24.4 9.2-36.1 3.4-11.7 4.9-17.9 7.5-26.6-6.5-5.8-12.3-12.3-17.2-19.6-3.4-4.7-5.3-10.3-5.3-16.1 0.1-5.8 1.8-11.6 4.9-16.5 3-5 6.5-9.7 10.6-13.9 5-5.4 10.5-10.3 16.4-14.8H555l16.4 14.8c4.9 4.2 9 9.1 11.9 14.8 3.6 4.8 5.4 10.6 5.3 16.5-0.2 7.1-2.6 14-6.6 20.1-5.4 6.8-11.4 12.8-18.1 18.2 0 7.9 4.4 17 6.6 29.2l8 36.1c0 11.7 4.9 23 6.6 33.5 1.5 7 2.3 14.2 2.7 21.3-0.7 5.4-3.2 10.5-7 14.4l-0.9-1z m0 0" p-id="34382"></path></svg>