<?xml version="1.0" standalone="no"?><!DOCTYPE svg PUBLIC "-//W3C//DTD SVG 1.1//EN" "http://www.w3.org/Graphics/SVG/1.1/DTD/svg11.dtd"><svg t="1585320069564" class="icon" viewBox="0 0 1024 1024" version="1.1" xmlns="http://www.w3.org/2000/svg" p-id="4495" xmlns:xlink="http://www.w3.org/1999/xlink" width="200" height="200"><defs><style type="text/css"></style></defs><path d="M307.2 624.64c12.8-2.56 25.6-7.68 35.84-15.36 7.68-2.56 12.8-7.68 17.92-12.8v-2.56c-2.56-5.12-2.56-12.8-5.12-17.92v-10.24l-15.36-15.36c-10.24-10.24-20.48-23.04-25.6-35.84-5.12-10.24-7.68-17.92-10.24-28.16v-7.68c-7.68-7.68-15.36-15.36-20.48-23.04-10.24-12.8-15.36-28.16-20.48-40.96-7.68-17.92-7.68-38.4-7.68-58.88 2.56-12.8 5.12-23.04 7.68-33.28l7.68-15.36c0-20.48 2.56-40.96 5.12-61.44 2.56-25.6 5.12-46.08 10.24-66.56h-7.68c-10.24 0-20.48 0-30.72 2.56-10.24 2.56-20.48 5.12-30.72 10.24-10.24 5.12-20.48 10.24-28.16 17.92-12.8 7.68-20.48 17.92-28.16 30.72-7.68 12.8-15.36 28.16-20.48 43.52-5.12 15.36-7.68 30.72-10.24 46.08-2.56 17.92-2.56 33.28-2.56 51.2-7.68 7.68-10.24 17.92-10.24 30.72v20.48c2.56 5.12 5.12 12.8 7.68 17.92 2.56 2.56 5.12 7.68 7.68 10.24 5.12-2.56 7.68 0 10.24 0l5.12 20.48c2.56 5.12 5.12 10.24 7.68 17.92 2.56 5.12 5.12 10.24 7.68 12.8 7.68 5.12 12.8 12.8 20.48 17.92 5.12 7.68 10.24 15.36 10.24 25.6v17.92c0 5.12 0 10.24-2.56 17.92-2.56 5.12-5.12 10.24-10.24 15.36-5.12 7.68-12.8 12.8-20.48 17.92-12.8 7.68-25.6 12.8-40.96 17.92-10.24 2.56-46.08 15.36-71.68 25.6v166.4H51.2c0-10.24 2.56-20.48 5.12-35.84V793.6c2.56-33.28 20.48-64 46.08-87.04 20.48-15.36 46.08-28.16 71.68-35.84H179.2c74.24-30.72 112.64-43.52 128-46.08z m645.12 15.36h-12.8c12.8 5.12 28.16 10.24 40.96 15.36v171.52h-2.56c0-7.68 0-12.8-2.56-20.48l-7.68-46.08c-7.68-25.6-23.04-46.08-43.52-64-17.92-12.8-35.84-23.04-56.32-30.72l-23.04-10.24-40.96-17.92c-12.8-5.12-25.6-10.24-40.96-15.36-12.8-2.56-28.16-7.68-40.96-12.8-7.68-2.56-15.36-7.68-23.04-12.8 2.56-7.68 5.12-15.36 5.12-23.04v-17.92c15.36-12.8 30.72-28.16 38.4-48.64 5.12-10.24 7.68-17.92 12.8-28.16v-2.56l2.56-7.68c12.8-10.24 23.04-23.04 30.72-38.4 7.68-15.36 10.24-30.72 12.8-48.64 2.56-15.36 2.56-28.16 0-43.52-2.56-12.8-7.68-28.16-15.36-38.4 0-20.48-2.56-40.96-5.12-58.88-2.56-20.48-7.68-40.96-12.8-58.88h15.36c12.8 0 23.04 2.56 35.84 5.12 20.48 5.12 40.96 15.36 58.88 28.16 7.68 5.12 12.8 10.24 17.92 17.92 10.24 15.36 20.48 30.72 25.6 46.08 5.12 15.36 7.68 30.72 10.24 48.64 2.56 17.92 2.56 35.84 2.56 53.76 2.56 2.56 5.12 5.12 5.12 7.68 2.56 2.56 2.56 7.68 5.12 12.8v17.92c0 7.68-2.56 15.36-5.12 23.04-2.56 5.12-5.12 10.24-7.68 12.8-2.56 2.56-7.68 5.12-12.8 7.68-2.56 7.68-5.12 15.36-5.12 20.48-2.56 5.12-5.12 10.24-7.68 17.92-2.56 5.12-5.12 10.24-10.24 12.8l-10.24 10.24c-2.56 2.56-7.68 5.12-10.24 7.68-2.56 2.56-5.12 5.12-7.68 10.24-5.12 10.24-5.12 23.04-5.12 33.28 0 7.68 2.56 15.36 5.12 20.48 2.56 7.68 7.68 15.36 15.36 20.48 7.68 7.68 17.92 12.8 28.16 17.92 17.92 0 30.72 2.56 40.96 5.12z m-43.52 107.52c12.8 10.24 20.48 23.04 25.6 38.4 2.56 12.8 5.12 23.04 7.68 35.84 2.56 15.36 2.56 2.56 2.56 17.92 0 12.8 0 28.16-2.56 40.96 0 10.24-5.12 20.48-7.68 30.72-7.68 5.12-15.36 10.24-25.6 12.8-115.2 33.28-235.52 48.64-358.4 48.64-122.88 0-245.76-12.8-368.64-35.84-15.36-2.56-30.72-7.68-46.08-15.36-10.24-12.8-15.36-28.16-15.36-43.52-2.56-23.04-2.56-48.64 2.56-71.68 2.56-20.48 12.8-38.4 25.6-51.2 15.36-12.8 30.72-20.48 48.64-28.16 17.92-7.68 107.52-38.4 128-43.52 17.92-5.12 35.84-12.8 53.76-23.04 10.24-5.12 20.48-12.8 28.16-23.04 5.12-7.68 10.24-12.8 15.36-23.04 2.56-7.68 5.12-15.36 5.12-23.04v-25.6c0-12.8-5.12-25.6-12.8-33.28l-25.6-25.6c-5.12-5.12-10.24-10.24-12.8-17.92-2.56-7.68-7.68-15.36-10.24-23.04l-7.68-33.28c-5.12-2.56-7.68-2.56-12.8-5.12-5.12-5.12-7.68-7.68-10.24-12.8-5.12-7.68-7.68-15.36-10.24-23.04-2.56-10.24-5.12-17.92-2.56-28.16 2.56-7.68 2.56-12.8 7.68-20.48 2.56-7.68 5.12-12.8 10.24-20.48-2.56-43.52 2.56-89.6 12.8-133.12 5.12-20.48 15.36-40.96 25.6-58.88 17.92-30.72 48.64-53.76 81.92-66.56 12.8-5.12 25.6-10.24 40.96-12.8 12.8-2.56 25.6-2.56 40.96-5.12 15.36 0 33.28 2.56 48.64 5.12 15.36 5.12 30.72 10.24 43.52 15.36 12.8 5.12 25.6 12.8 35.84 23.04 10.24 7.68 17.92 15.36 25.6 25.6 15.36 20.48 25.6 40.96 33.28 64 7.68 20.48 12.8 43.52 15.36 66.56 2.56 23.04 5.12 48.64 5.12 74.24 5.12 2.56 7.68 7.68 7.68 10.24 2.56 5.12 5.12 10.24 5.12 15.36 2.56 7.68 2.56 15.36 0 25.6 0 10.24-2.56 20.48-7.68 30.72-2.56 7.68-7.68 12.8-12.8 17.92-5.12 5.12-7.68 7.68-15.36 10.24-2.56 10.24-5.12 20.48-7.68 28.16s-7.68 15.36-10.24 23.04c-2.56 7.68-7.68 12.8-12.8 17.92-5.12 5.12-10.24 7.68-15.36 12.8-5.12 2.56-7.68 7.68-12.8 10.24-2.56 5.12-7.68 7.68-7.68 12.8-5.12 15.36-7.68 30.72-7.68 46.08 0 10.24 2.56 20.48 7.68 28.16 5.12 10.24 12.8 20.48 20.48 28.16 10.24 10.24 23.04 17.92 38.4 23.04 15.36 5.12 30.72 12.8 48.64 15.36 17.92 2.56 87.04 35.84 102.4 40.96 12.8 12.8 25.6 20.48 38.4 30.72z m-314.88 125.44c5.12-2.56 5.12-7.68 7.68-12.8 0-7.68 0-12.8-2.56-20.48-2.56-10.24-5.12-20.48-5.12-30.72l-7.68-33.28c-2.56-10.24-5.12-20.48-5.12-25.6 5.12-5.12 12.8-10.24 15.36-15.36 2.56-5.12 5.12-12.8 5.12-17.92 0-5.12-2.56-10.24-5.12-15.36-2.56-5.12-7.68-10.24-10.24-12.8l-15.36-12.8h-43.52c-5.12 5.12-10.24 7.68-15.36 12.8-2.56 2.56-7.68 7.68-10.24 12.8-2.56 5.12-5.12 10.24-5.12 15.36 0 5.12 2.56 10.24 5.12 15.36 5.12 7.68 10.24 12.8 15.36 17.92-2.56 7.68-2.56 12.8-7.68 23.04-2.56 10.24-5.12 20.48-7.68 33.28-2.56 10.24-7.68 23.04-7.68 30.72-2.56 7.68-2.56 15.36-2.56 23.04 0 5.12 2.56 10.24 7.68 12.8 5.12 5.12 10.24 12.8 15.36 17.92 5.12 5.12 12.8 10.24 17.92 15.36 2.56 2.56 7.68 5.12 12.8 5.12s10.24-2.56 12.8-5.12c5.12-5.12 12.8-7.68 17.92-15.36 7.68-5.12 12.8-10.24 17.92-17.92z" fill="#cdcdcd" p-id="4496"></path></svg>