<?xml version="1.0" standalone="no"?><!DOCTYPE svg PUBLIC "-//W3C//DTD SVG 1.1//EN" "http://www.w3.org/Graphics/SVG/1.1/DTD/svg11.dtd"><svg t="1587208113569" class="icon" viewBox="0 0 1024 1024" version="1.1" xmlns="http://www.w3.org/2000/svg" p-id="43500" xmlns:xlink="http://www.w3.org/1999/xlink" width="64" height="64"><defs><style type="text/css"></style></defs><path d="M735.1424 504.96c0 10.944-7.1552 19.8272-15.9616 19.8272H304.8192c-8.8064 0-15.9616-8.8832-15.9616-19.8272v-3.904c0-10.944 7.1552-19.8272 15.9616-19.8272h414.3616c8.8064 0 15.9616 8.8832 15.9616 19.8272v3.904z m0 159.1808c0 10.944-7.1552 19.8144-15.9616 19.8144H304.8192c-8.8064 0-15.9616-8.8704-15.9616-19.8144v-3.9168c0-10.9184 7.1552-19.8144 15.9616-19.8144h414.3616c8.8064 0 15.9616 8.896 15.9616 19.8144v3.9168zM496.9088 161.0368a26.9568 26.9568 0 0 1 30.1824 0l138.6624 93.4784H358.2464l138.6624-93.4784z m262.3488 93.4784a18.0224 18.0224 0 0 0-4.2624-4.3264L547.52 100.5312a63.1936 63.1936 0 0 0-71.04 0L269.0048 250.1888a17.6128 17.6128 0 0 0-4.2368 4.3264h-123.2128C112.896 254.5152 89.6 277.248 89.6 305.2032v585.8944c0 27.9424 23.3088 50.7008 51.9552 50.7008H882.432C911.104 941.7984 934.4 919.04 934.4 891.0976V305.1904c0-27.9424-23.3088-50.688-51.9552-50.688h-123.1872z" fill="#bfbfbf" p-id="43501"></path></svg>