<svg t="1613105141832" class="icon" viewBox="0 0 1024 1024" version="1.1" xmlns="http://www.w3.org/2000/svg" p-id="16154" width="64" height="64"><path d="M512 0a512 512 0 1 0 0 1024A512 512 0 0 0 512 0z m311.424 406.656l-373.76 353.216c-11.392 10.88-30.016 10.88-41.472 0L200.576 563.648a26.688 26.688 0 0 1 0-39.296l41.6-39.232c11.392-10.88 30.016-10.88 41.472 0l145.28 137.408 311.424-294.4c11.52-10.88 30.08-10.88 41.536 0l41.536 39.232c11.456 10.88 11.456 28.416 0 39.296z" fill="#22D699" p-id="16155"></path></svg>