<svg t="1598420378666" class="icon" viewBox="0 0 1024 1024" version="1.1" xmlns="http://www.w3.org/2000/svg" p-id="1310" width="64" height="64"><path d="M930.579692 86.409846V608.098462c0 31.350154-7.404308 62.464-22.212923 93.420307a440.871385 440.871385 0 0 1-58.289231 90.112c-24.103385 29.065846-51.593846 56.635077-82.392615 82.550154-30.956308 25.993846-62.227692 49.152-93.971692 69.474462a717.981538 717.981538 0 0 1-92.632616 50.727384c-29.932308 13.390769-56.241231 22.606769-78.76923 27.648L491.52 1024l-9.767385-1.890462a434.569846 434.569846 0 0 1-80.580923-27.648 779.106462 779.106462 0 0 1-95.310769-50.727384 895.291077 895.291077 0 0 1-97.043692-69.474462 672.059077 672.059077 0 0 1-85.070769-82.550154 438.823385 438.823385 0 0 1-60.49477-90.112A206.690462 206.690462 0 0 1 40.172308 608.098462V86.409846l36.470154-5.671384L486.242462 0l417.634461 80.738462 26.781539 5.671384zM486.4 75.539692L481.437538 74.515692l-351.547076 63.015385v329.255385h356.509538V75.539692z m354.461538 391.24677h-354.461538v468.676923c22.843077-5.513846 47.576615-14.020923 74.436923-25.363693 26.781538-11.342769 53.169231-24.733538 79.241846-40.172307 26.151385-15.517538 51.2-32.768 75.460923-51.672616 24.182154-18.904615 45.449846-39.227077 64.118154-60.967384 18.589538-21.582769 33.476923-44.110769 44.504616-67.584 11.185231-23.315692 16.699077-47.104 16.699076-71.207385V466.786462z" p-id="1311"></path></svg>