<?xml version="1.0" standalone="no"?><!DOCTYPE svg PUBLIC "-//W3C//DTD SVG 1.1//EN" "http://www.w3.org/Graphics/SVG/1.1/DTD/svg11.dtd"><svg t="1595119159263" class="icon" viewBox="0 0 1024 1024" version="1.1" xmlns="http://www.w3.org/2000/svg" p-id="13661" xmlns:xlink="http://www.w3.org/1999/xlink" width="64" height="64"><defs><style type="text/css"></style></defs><path d="M0 0h1023.950002v1023.950002H0z" fill="#8a8a8a" p-id="13662" data-spm-anchor-id="a313x.7781069.0.i9" class="selected"></path><path d="M457.547659 895.266286C441.468444 952.473493 212.9896 1023.950002 212.9896 1023.950002h554.972902s-69.136624-58.16716-90.585577-128.683716c-14.519291-47.757668-9.949514-150.892632 10.729476-217.149397s61.656989-167.921801 61.656989-264.747073c0-178.99126-110.714594-247.287925-247.287925-247.287925h-11.399443c-127.353782 5.359738-210.369728 82.755959-223.869069 192.990576-16.079215 131.353586 2.679869 239.258317 16.089214 297.57547s56.297251 152.802539 171.571623 139.403193q4.999756-0.579972 9.809521-1.289937c0.19999 41.767961-1.479928 80.436072-7.129652 100.505093z" fill="#FFFFFF" p-id="13663"></path><path d="M502.475465 166.081891c136.573331 0 247.287925 68.326664 247.287925 247.287925 0 96.825272-40.997998 198.500308-61.656989 264.747073s-25.248767 169.391729-10.729476 217.149397c21.448953 70.516557 90.995557 128.683717 90.995557 128.683716H212.9896s228.518842-71.47651 244.598057-128.683716c5.649724-20.06902 7.329642-58.737132 7.129652-100.475094q-4.859763 0.699966-9.809521 1.289937a186.57089 186.57089 0 0 1-21.548948 1.279937c-99.165158 0-137.493286-86.165793-149.992676-140.68313-13.409345-58.317152-32.168429-166.221884-16.089215-297.57547 13.499341-110.264616 96.515287-187.660837 223.869069-192.990577h11.399444m0-16.089214h-12.139408c-65.386807 2.759865-122.294029 23.908833-164.591963 61.177013-41.57797 36.638211-67.366711 87.115746-74.566359 145.992871-12.299399 100.405097-6.789668 202.390118 16.369201 303.135198 6.129701 26.668698 19.059069 65.216816 45.827762 97.465241 30.688502 36.998193 70.996533 55.70728 119.874147 55.70728 4.999756 0 10.069508-0.19999 15.229256-0.59997-0.459978 46.587725-3.68982 68.126674-6.479683 78.066188-2.409882 8.569582-16.489195 32.288423-94.995362 67.416708a897.746165 897.746165 0 0 1-89.995606 34.158332l-101.995019 31.458464h648.428338l-38.758107-28.998584c-0.499976-0.379981-52.417441-40.068044-71.996485-104.394903-13.72933-45.137796-8.529584-146.062868 10.689478-207.66986 3.609824-11.569435 7.899614-24.388809 12.439393-37.998144 21.078971-62.996924 49.997559-149.272711 49.997558-231.588692 0-88.995655-26.20872-157.262321-77.886197-202.820097C643.038602 170.931654 578.891734 149.992676 502.475465 149.992676z" fill="#8a8a8a" p-id="13664" data-spm-anchor-id="a313x.7781069.0.i10" class="selected"></path><path d="M464.68731 794.771193c0 34.998291-1.819911 88.495679-11.719428 110.744592l108.574699-140.69313a316.164562 316.164562 0 0 1-96.855271 29.948538z" fill="#D0D7DE" p-id="13665"></path><path d="M688.106401 678.116889c20.668991-66.246765 61.656989-167.921801 61.656989-264.747073 0-84.135892-24.468805-143.812978-64.596845-183.431043 40.468024 113.074479 21.69894 177.411337-18.509097 279.286362-29.368566 74.396367-7.999609 184.990967 2.279889 309.564885 0.029999-46.737718 6.629676-100.485094 19.169064-140.673131z" fill="#F0F1F2" p-id="13666"></path></svg>