<svg t="1613105094530" class="icon" viewBox="0 0 1024 1024" version="1.1" xmlns="http://www.w3.org/2000/svg" p-id="15380" width="64" height="64"><path d="M512 39.765333A465.322667 465.322667 0 0 0 47.189333 504.576 465.322667 465.322667 0 0 0 512 969.386667a465.322667 465.322667 0 0 0 464.810667-464.810667A465.322667 465.322667 0 0 0 512 39.765333zM170.069333 504.576A342.357333 342.357333 0 0 1 512 162.645333c74.069333 0 142.506667 23.722667 198.656 63.829334L233.813333 703.146667a340.053333 340.053333 0 0 1-63.829333-198.570667zM512 846.506667c-70.229333 0-135.509333-21.333333-189.866667-57.685334L796.16 314.709333c36.437333 54.272 57.685333 119.637333 57.685333 189.866667A342.357333 342.357333 0 0 1 512 846.506667z" fill="#F44444" p-id="15381"></path></svg>