<?xml version="1.0" standalone="no"?><!DOCTYPE svg PUBLIC "-//W3C//DTD SVG 1.1//EN" "http://www.w3.org/Graphics/SVG/1.1/DTD/svg11.dtd"><svg t="1587012124950" class="icon" viewBox="0 0 1024 1024" version="1.1" xmlns="http://www.w3.org/2000/svg" p-id="9446" xmlns:xlink="http://www.w3.org/1999/xlink" width="200" height="200"><defs><style type="text/css"></style></defs><path d="M0.001024 409.6c0-28.2624 23.296-51.2 50.7904-51.2h922.4192c28.0576 0 50.7904 22.7328 50.7904 51.2 0 28.2624-23.296 51.2-50.7904 51.2H50.791424A50.8416 50.8416 0 0 1 0.001024 409.6z m0-204.8c0-28.2624 23.296-51.2 50.7904-51.2h922.4192c28.0576 0 50.7904 22.7328 50.7904 51.2 0 28.2624-23.296 51.2-50.7904 51.2H50.791424A50.8416 50.8416 0 0 1 0.001024 204.8z m0 409.6c0-28.2624 23.296-51.2 50.7904-51.2h922.4192c28.0576 0 50.7904 22.7328 50.7904 51.2 0 28.2624-23.296 51.2-50.7904 51.2H50.791424A50.8416 50.8416 0 0 1 0.001024 614.4z m0 204.8c0-28.2624 23.296-51.2 50.7904-51.2h922.4192c28.0576 0 50.7904 22.7328 50.7904 51.2 0 28.2624-23.296 51.2-50.7904 51.2H50.791424A50.8416 50.8416 0 0 1 0.001024 819.2z" fill="#272536" p-id="9447"></path></svg>