<?xml version="1.0" standalone="no"?><!DOCTYPE svg PUBLIC "-//W3C//DTD SVG 1.1//EN" "http://www.w3.org/Graphics/SVG/1.1/DTD/svg11.dtd"><svg t="1595077654331" class="icon" viewBox="0 0 1024 1024" version="1.1" xmlns="http://www.w3.org/2000/svg" p-id="7295" xmlns:xlink="http://www.w3.org/1999/xlink" width="64" height="64"><defs><style type="text/css"></style></defs><path d="M512.284444 830.293333m-83.057777 0a83.057778 83.057778 0 1 0 166.115555 0 83.057778 83.057778 0 1 0-166.115555 0Z" p-id="7296" fill="#707070"></path><path d="M896.853333 706.844444H128a113.777778 113.777778 0 0 1-113.777778-113.777777V239.502222a113.777778 113.777778 0 0 1 113.777778-113.777778h768a113.777778 113.777778 0 0 1 113.777778 113.777778v354.133334a113.777778 113.777778 0 0 1-112.924445 113.208888zM264.533333 483.555556H183.466667v-170.666667H137.386667v207.644444H264.533333z m105.244445 36.977777a119.751111 119.751111 0 0 0 83.342222-28.444444A99.271111 99.271111 0 0 0 483.555556 413.866667Q483.555556 312.888889 369.777778 312.888889h-75.662222v207.644444z m-3.413334-170.666666a73.955556 73.955556 0 0 1 50.915556 17.351111 61.155556 61.155556 0 0 1 19.626667 48.355555 68.835556 68.835556 0 0 1-18.773334 50.915556 69.688889 69.688889 0 0 1-51.768889 18.773333H341.333333v-136.248889zM625.777778 312.888889h-53.475556l-79.36 207.644444h50.062222l15.928889-47.502222h78.791111L654.222222 520.533333h50.346667z m-56.888889 126.008889l24.746667-72.533334a73.955556 73.955556 0 0 0 3.697777-17.635555 78.506667 78.506667 0 0 0 3.413334 18.204444l25.031111 71.68z m232.675555 9.386666a92.16 92.16 0 0 0 61.155556-18.488888 62.008889 62.008889 0 0 0 24.462222-51.2q0-65.706667-80.782222-65.706667h-74.524444v207.644444h46.08v-72.533333z m-3.413333-100.977777q40.391111 0 40.391111 33.28t-40.675555 33.848889h-19.911111V347.022222z" p-id="7297" fill="#707070"></path><path d="M470.755556 650.524444h83.057777v165.831112h-83.057777z" p-id="7298" fill="#707070"></path><path d="M899.413333 788.764444m0 40.106667l0 2.844445q0 40.106667-40.106666 40.106666l-694.044445 0q-40.106667 0-40.106666-40.106666l0-2.844445q0-40.106667 40.106666-40.106667l694.044445 0q40.106667 0 40.106666 40.106667Z" p-id="7299" fill="#707070"></path></svg>