<?xml version="1.0" standalone="no"?><!DOCTYPE svg PUBLIC "-//W3C//DTD SVG 1.1//EN" "http://www.w3.org/Graphics/SVG/1.1/DTD/svg11.dtd"><svg t="1585390327927" class="icon" viewBox="0 0 1024 1024" version="1.1" xmlns="http://www.w3.org/2000/svg" p-id="19780" data-spm-anchor-id="a313x.7781069.0.i14" xmlns:xlink="http://www.w3.org/1999/xlink" width="200" height="200"><defs><style type="text/css"></style></defs><path d="M340.419584 357.614592c0-86.347776 79.91808-166.573056 165.943296-166.573056s165.948416 80.224256 165.948416 166.573056v65.72032h89.092096v-64.4096c0-141.387776-114.190336-256.013312-255.040512-256.013312-140.845056 0-255.030272 114.620416-255.030272 256.013312v64.4096h89.086976v-65.72032z m0 0M742.009856 456.041472H270.722048c-39.52128 0-71.552 32.15872-71.552 71.82848V850.2784c0 39.66976 32.03584 71.8336 71.552 71.8336h471.287808c39.52128 0 71.55712-32.16384 71.55712-71.8336V527.868928c-0.001024-39.663616-32.04096-71.827456-71.55712-71.827456zM551.92064 771.380224h-90.976256l19.968-75.09504c-19.51744-9.4976-32.98304-29.57824-32.98304-52.81792 0-32.39936 26.1632-58.67008 58.43456-58.67008 32.27648 0 58.43968 26.2656 58.43968 58.67008 0 23.1936-13.40416 43.23328-32.86528 52.75648l19.982336 75.15648z m0 0" fill="#d81e06" p-id="19781"></path></svg>