<?xml version="1.0" standalone="no"?><!DOCTYPE svg PUBLIC "-//W3C//DTD SVG 1.1//EN" "http://www.w3.org/Graphics/SVG/1.1/DTD/svg11.dtd"><svg t="1595327538331" class="icon" viewBox="0 0 1024 1024" version="1.1" xmlns="http://www.w3.org/2000/svg" p-id="26081" xmlns:xlink="http://www.w3.org/1999/xlink" width="64" height="64"><defs><style type="text/css"></style></defs><path d="M950.270045 670.790348a130.363369 130.363369 0 0 0-151.692455 15.100992l-62.280929-36.088812V471.747324a51.616386 51.616386 0 0 0-25.765535-44.791079L550.904252 335.070545V256.15293a131.557798 131.557798 0 1 0-84.548495 0v78.832299L306.643567 426.956245a51.616386 51.616386 0 0 0-25.850852 44.791079v177.969887l-62.195612 36.003496A130.363369 130.363369 0 0 0 66.904648 670.790348a131.728431 131.728431 0 0 0-48.118416 179.505581 130.534002 130.534002 0 0 0 178.652418 48.203733 131.472482 131.472482 0 0 0 62.96346-139.492218l57.161948-33.273373 165.087121 95.127721a52.042968 52.042968 0 0 0 51.616386 0l165.001804-94.957088 57.161948 33.188057a131.728431 131.728431 0 0 0 62.96346 139.492217 130.448686 130.448686 0 0 0 178.652419-48.118416 131.643114 131.643114 0 0 0-47.777151-179.505582zM160.155409 833.403294a56.308785 56.308785 0 0 1-55.96752-97.601894 56.308785 56.308785 0 0 1 55.96752 97.601894z m291.95252-701.64159a56.308785 56.308785 0 1 1 112.788203 0 56.308785 56.308785 0 0 1-112.788203 0z m199.640238 523.842335l-143.331453 82.586218-143.160821-82.500902V490.772868l143.246137-82.586219 143.246137 82.586219v164.831171z m281.629242 157.238017a55.96752 55.96752 0 1 1-97.089996-56.223469 55.96752 55.96752 0 1 1 97.089996 56.308785z" p-id="26082"></path></svg>