<svg t="1600925622853" class="icon" viewBox="0 0 1024 1024" version="1.1" xmlns="http://www.w3.org/2000/svg" p-id="11309" width="64" height="64"><path d="M597.497488 0.031231A40.958751 40.958751 0 0 1 639.992192 38.942044v158.203175a40.958751 40.958751 0 0 1-42.494704 38.910813H426.494704A40.958751 40.958751 0 0 1 384 197.145219V38.942044A40.958751 40.958751 0 0 1 425.98272 0.031231z m0 393.715992a40.958751 40.958751 0 0 1 42.494704 38.910813v158.203175a40.958751 40.958751 0 0 1-42.494704 38.910813H426.494704a40.958751 40.958751 0 0 1-42.494704-38.398829v-158.715159a40.958751 40.958751 0 0 1 41.98272-38.910813z m0 393.715991a40.958751 40.958751 0 0 1 42.494704 38.910814v158.203174a40.958751 40.958751 0 0 1-42.494704 38.910814H426.494704a40.958751 40.958751 0 0 1-42.494704-38.398829v-158.203175a40.958751 40.958751 0 0 1 41.98272-38.910813z" p-id="11310"></path></svg>