<svg t="1595307567354" class="icon" viewBox="0 0 1024 1024" version="1.1" xmlns="http://www.w3.org/2000/svg" p-id="20497" width="64" height="64"><path d="M821.9 384.6h-68.8v-97.1C753.1 155.7 644.2 64 512.4 64c-131.8 0-240.7 91.7-240.7 223.5v96.3H203c-34.4 0-57.3 28.7-57.3 57.3v459.5c0 34.4 28.7 57.3 57.3 57.3h618.9c34.4 0 57.3-28.7 57.3-57.3V441.9c0-34.4-22.9-57.3-57.3-57.3zM547.3 689.3v101.1c0 5.9-5.9 5.9-5.9 5.9h-53.5c-5.9 0-5.9-5.9-5.9-5.9V689.3c-29.7-11.9-47.6-35.7-47.6-65.4 0-41.6 35.7-77.3 77.3-77.3 41.6 0 77.3 35.7 77.3 77.3-0.1 29.7-17.9 53.5-41.7 65.4z m124.4-304.7h-316V275.4c0-71.1 72.9-130.4 158-130.4s158 59.3 158 130.4v109.2z m-10.3 0" p-id="20498"></path></svg>