<?xml version="1.0" standalone="no"?><!DOCTYPE svg PUBLIC "-//W3C//DTD SVG 1.1//EN" "http://www.w3.org/Graphics/SVG/1.1/DTD/svg11.dtd"><svg t="1585633350282" class="icon" viewBox="0 0 1024 1024" version="1.1" xmlns="http://www.w3.org/2000/svg" p-id="8133" xmlns:xlink="http://www.w3.org/1999/xlink" width="200" height="200"><defs><style type="text/css"></style></defs><path d="M858.910118 216.681412c28.16-10.390588 32.361412-25.856 32.361411-34.138353s-4.201412-23.762824-32.346353-34.138353L518.610824 22.693647C486.098824 10.676706 430.682353 10.691765 398.170353 22.678588L57.856 148.389647c-28.129882 10.390588-32.331294 25.856-32.331294 34.138353s4.201412 23.762824 32.331294 34.138353l340.314353 125.711059c16.248471 5.993412 37.647059 9.306353 60.220235 9.306353s43.956706-3.312941 60.205177-9.306353l340.314353-125.696zM376.892235 386.063059L73.321412 272.263529c-7.875765-2.966588-15.013647-4.457412-22.181647-4.457411-28.325647 0-46.125176 22.076235-46.125177 56.259764V703.247059c0 39.951059 26.443294 80.022588 61.44 93.199059l299.339294 113.829647c7.875765 2.966588 13.899294 4.472471 21.89553 4.47247 31.954824 0 54.031059-24.199529 54.031059-56.274823V479.307294c0-37.541647-27.949176-79.36-64.828236-93.244235zM571.376941 836.954353c-10.676706-3.117176-26.955294-15.405176-26.955294-31.563294l-0.436706-44.257883c0-16.188235 16.474353-28.521412 27.602824-31.774117l19.591529-6.113883c4.035765-13.598118 9.502118-26.834824 16.293647-39.469176l-10.601412-19.350588c-6.761412-12.333176-4.352-29.184 5.632-39.183059l31.307295-31.096471c9.336471-9.321412 26.398118-12.107294 39.378823-4.98447l18.959059 11.098353c10.767059-5.616941 23.205647-10.270118 40.297412-15.088941l5.692235-16.579765c4.005647-13.748706 17.799529-24.741647 31.307294-24.741647l46.787765-0.466824c8.884706 0 21.007059 3.930353 28.310588 22.693647l6.128941 14.411294c14.697412 4.156235 28.958118 9.953882 42.480941 17.257412l14.08-9.607529c5.767529-3.147294 16.353882-4.261647 16.353883-3.418353V324.065882c0-19.471059-4.939294-36.457412-19.606589-46.607058-15.510588-10.767059-34.048-12.649412-53.925647-5.180236l-300.468705 113.79953c-34.816 13.116235-62.689882 54.061176-62.689883 93.229176v379.166118c0 21.594353 9.125647 38.776471 23.055059 48.414117 7.424 5.150118 16.926118 7.770353 26.624 7.770353 7.484235 0 15.887059-1.581176 24.274824-4.758588l40.628705-18.251294 4.653177-8.749176c-8.086588-14.516706-13.748706-27.422118-17.648941-40.011295l-17.106824-5.933176z" p-id="8134" fill="#bfbfbf"></path><path d="M792.591059 661.097412c-68.231529 0-123.723294 55.506824-123.723294 123.738353 0 68.231529 55.506824 123.738353 123.723294 123.738353s123.738353-55.506824 123.738353-123.738353c0-68.231529-55.506824-123.738353-123.738353-123.738353z m-1.776941 169.803294a46.832941 46.832941 0 1 1 0-93.635765 46.832941 46.832941 0 0 1 0 93.635765z" p-id="8135" fill="#bfbfbf"></path><path d="M1022.464 759.943529c0-7.710118-3.433412-14.697412-10.827294-16.865882l-30.59953-7.68c-4.803765-19.230118-11.113412-37.345882-21.127529-53.865412l13.839059-24.109176c3.704471-6.761412 2.590118-16.760471-2.861177-22.226824l-31.141647-31.292235c-3.403294-3.403294-8.538353-5.240471-13.583058-5.240471-3.026824 0-6.023529 0.662588-8.553412 2.063059l-24.545883 13.44753a194.680471 194.680471 0 0 0-53.067294-21.654589l-7.981176-22.000941c-2.168471-7.393882-10.014118-14.486588-17.739294-14.486588l-44.42353 0.737882c-7.710118 0-15.872 6.354824-18.04047 13.748706l-8.192 25.283765c-18.371765 4.773647-35.704471 10.842353-51.576471 20.404706l-25.886118-14.817883a18.928941 18.928941 0 0 0-8.990117-2.16847c-4.924235 0-9.923765 1.701647-13.236706 5.029647l-31.292235 31.141647c-5.451294 5.451294-6.896941 15.375059-3.192471 22.136471l14.426353 26.337882a194.394353 194.394353 0 0 0-20.961882 50.778353l-27.181177 8.463059c-7.408941 2.168471-17.408 10.24-17.408 17.950117l0.436706 44.257883c0 7.710118 9.562353 15.796706 16.971294 17.965176l24.560941 8.478118c4.592941 18.070588 13.040941 35.117176 22.272 50.793412l-13.763764 26.368c-3.704471 6.761412-1.942588 16.760471 3.508706 22.226823l31.457882 31.292235c3.403294 3.403294 8.613647 5.240471 13.68847 5.240471 3.056941 0 6.068706-0.662588 8.613648-2.048l25.931294-14.155294a195.011765 195.011765 0 0 0 51.591529 21.714823l8.192 26.172236c2.168471 7.393882 9.637647 18.100706 17.362824 18.100706l45.251764 0.030117c7.710118 0 15.435294-10.736941 17.603765-18.130823l7.981176-22.874353c18.928941-4.623059 36.758588-13.312 53.082353-22.979765l24.576 12.784941c2.439529 1.325176 5.285647 1.957647 8.192 1.957647 5.180235 0 10.526118-1.972706 14.019765-5.466353l31.307294-31.457882c5.451294-5.451294 6.881882-15.540706 3.192471-22.302118l-13.19153-24.154353a195.523765 195.523765 0 0 0 22.452706-53.895529l27.964236-7.695059c7.408941-2.168471 11.489882-10.270118 11.489882-17.980235l-0.602353-45.357177zM792.591059 921.569882c-75.384471 0-136.734118-61.349647-136.734118-136.734117 0-75.399529 61.349647-136.734118 136.734118-136.734118 75.399529 0 136.734118 61.349647 136.734117 136.734118 0 75.399529-61.334588 136.734118-136.734117 136.734117z" p-id="8136" fill="#bfbfbf"></path></svg>