<svg t="1612770818972" class="icon" viewBox="0 0 1024 1024" version="1.1" xmlns="http://www.w3.org/2000/svg" p-id="15724" width="64" height="64"><path d="M883.2 115.2H140.8c-12.8 0-25.6 12.8-25.6 25.6v736c0 19.2 12.8 32 32 32h736c19.2 0 32-12.8 32-32V140.8c-6.4-12.8-19.2-25.6-32-25.6z m-44.8 723.2H185.6V185.6h652.8v652.8zM307.2 524.8h51.2c6.4 0 6.4 0 6.4-6.4V435.2c0-19.2 12.8-38.4 38.4-38.4h204.8V448c0 6.4 6.4 6.4 12.8 6.4l108.8-83.2c6.4 0 6.4-6.4 0-12.8L614.4 281.6c-6.4-6.4-12.8 0-12.8 6.4v51.2H396.8c-51.2 0-96 44.8-96 96V512c0 6.4 0 12.8 6.4 12.8z m-6.4 134.4l108.8 83.2c6.4 6.4 12.8 0 12.8-6.4v-51.2h204.8c57.6 0 102.4-44.8 102.4-102.4V505.6c0-6.4 0-6.4-6.4-6.4h-51.2c-6.4 0-6.4 0-6.4 6.4v76.8c0 19.2-12.8 38.4-38.4 38.4H422.4v-51.2c0-6.4-6.4-6.4-12.8-6.4l-108.8 83.2c-6.4 6.4-6.4 12.8 0 12.8z" p-id="15725" fill="#13C2C2"></path></svg>