<svg t="1599179748473" class="icon" viewBox="0 0 1024 1024" version="1.1" xmlns="http://www.w3.org/2000/svg" p-id="22148" width="64" height="64"><path d="M496.335783 342.90479c9.727737-27.03287 15.973969-55.806493 15.973969-86.218473A255.788294 255.788294 0 0 0 256.470259 0.898024a253.433157 253.433157 0 0 0-82.020185 14.642804L258.262211 99.352965a112.534562 112.534562 0 1 1-159.227701 159.176503L15.273572 174.717331a253.125966 253.125966 0 0 0-14.642805 81.968986 255.788294 255.788294 0 0 0 255.839492 255.788294 252.921171 252.921171 0 0 0 86.269671-15.973969l493.861866 493.759469a108.694665 108.694665 0 0 0 153.647051 0 108.541069 108.541069 0 0 0 0-153.595853L496.335783 342.90479z m515.467682-279.954042A36.863005 36.863005 0 0 0 959.683273 10.830556l-339.088445 338.986047 52.120193 52.120193 339.088444-338.986048zM245.257762 617.892565L32.988293 830.110835a112.534562 112.534562 0 1 0 159.227701 159.176502L404.485463 777.069067c19.762666-19.711468 29.285609-44.849989 30.975164-70.551695l-119.599971-119.599971c-25.701706 1.740753-50.840227 11.263696-70.602894 30.975164z" fill="#bfbfbf" p-id="22149"></path></svg>