<svg t="1601988473425" class="icon" viewBox="0 0 1024 1024" version="1.1" xmlns="http://www.w3.org/2000/svg" p-id="42394" width="64" height="64"><path d="M981.791 714.706h-400.5c-9.14 0-16.514-10.707-16.514-23.927v-56.342c0-13.151 7.375-23.926 16.514-23.926h400.5c9.19 0 16.564 10.777 16.564 23.926v56.411c0 13.151-7.374 23.858-16.564 23.858z m0 142.664h-400.5c-9.14 0-16.514-10.709-16.514-23.927v-56.416c0-13.285 7.375-23.921 16.514-23.921h400.5c9.19 0 16.564 10.707 16.564 23.921v56.416c0 13.22-7.374 23.927-16.564 23.927z m0 142.528h-400.5c-9.14 0-16.514-10.715-16.514-23.926V919.56c0-13.153 7.375-23.934 16.514-23.934h400.5c9.19 0 16.564 10.714 16.564 23.934v56.41c0 13.212-7.374 23.927-16.564 23.927zM552.178 547.833h71.31a130.864 130.864 0 0 0 4.823-34.772 133.11 133.11 0 0 0-44.584-99.231 133.411 133.411 0 0 0-103.784-32.937c-61.432 7.265-109.848 55.649-117.088 116.999a133.076 133.076 0 0 0 32.976 103.672 133.456 133.456 0 0 0 99.365 44.558V604.94a56.853 56.853 0 0 1 16.614-40.368 57.018 57.018 0 0 1 40.368-16.738z m0 0" p-id="42395"></path><path d="M291.182 513.06c0.117-112.453 91.344-203.59 203.947-203.742 60.14 0.117 117.19 26.705 155.91 72.667a203.83 203.83 0 0 1 45.04 165.848H883.99a366.368 366.368 0 0 0-1.464-82.078l57.05-44.169c26.744-17.269 35.228-52.46 19.285-79.998l-83.238-144.056c-15.926-27.584-50.733-37.83-79.106-23.304l-66.59 27.2a388.087 388.087 0 0 0-82.046-47.158l-9.76-71.368c-1.463-31.819-27.734-56.865-59.618-56.832H411.749c-31.934-0.138-58.274 24.965-59.62 56.832l-9.819 71.368a393.184 393.184 0 0 0-82.054 47.158l-66.717-27.2c-28.34-14.556-63.13-4.293-78.997 23.304l-83.296 144.27c-15.841 27.57-7.234 62.7 19.57 79.853l56.832 44.168a379.295 379.295 0 0 0 0 94.602l-56.965 43.96c-26.837 17.205-35.378 52.45-19.37 79.995l83.23 144.125c8.079 13.703 20.896 23.65 36.361 27.826a59.062 59.062 0 0 0 42.703-4.733l66.65-27.201c25.08 18.85 52.655 34.647 82.053 47.165l9.82 71.435c1.386 31.862 27.693 56.968 59.619 56.9h83.239V716.791c-112.562-0.194-203.73-91.331-203.806-203.731z m0 0" p-id="42396"></path></svg>