<svg t="1599967597087" class="icon" viewBox="0 0 1024 1024" version="1.1" xmlns="http://www.w3.org/2000/svg" p-id="1981" width="64" height="64"><path d="M512 0a512 512 0 1 1 0 1024A512 512 0 0 1 512 0z m0 93.110857a418.889143 418.889143 0 1 0 0 837.778286A418.889143 418.889143 0 0 0 512 93.110857z m23.259429 349.037714c12.873143 0 23.259429 10.459429 23.259428 23.332572v209.408h37.814857c12.873143 0 23.332571 10.459429 23.332572 23.259428v49.517715a23.259429 23.259429 0 0 1-23.332572 23.259428H418.889143a23.259429 23.259429 0 0 1-23.259429-23.259428v-49.517715c0-12.8 10.459429-23.259429 23.259429-23.259428h46.592V538.185143h-23.332572a23.259429 23.259429 0 0 1-23.259428-23.259429v-49.444571c0-12.873143 10.459429-23.332571 23.259428-23.332572h93.110858z m0-186.148571c12.873143 0 23.259429 10.386286 23.259428 23.259429v69.851428a23.259429 23.259429 0 0 1-23.259428 23.259429h-69.778286a23.259429 23.259429 0 0 1-23.332572-23.259429v-69.851428c0-12.873143 10.459429-23.259429 23.332572-23.259429h69.778286z" p-id="1982" fill="#07ABAB"></path></svg>