<svg t="1601969177778" class="icon" viewBox="0 0 1024 1024" version="1.1" xmlns="http://www.w3.org/2000/svg" p-id="7531" width="64" height="64"><path d="M944.6976 768.768c-13.1136-17.8688-27.6928-39.3088-43.872-64.1344-15.6736-23.8208-30.656-50.6944-44.7232-80.1984-13.6384-28.0448-25.8048-58.9632-36.1024-92.0192-9.3632-30.3808-14.0736-61.888-14.0736-93.5552 0-38.5088-5.4528-74.08-16.2496-105.6768-10.5344-31.3664-24.9536-59.9168-43.0272-85.1328-18.176-24.9984-40.0064-46.3424-64.8128-63.392-22.5344-15.6416-47.2896-27.8272-76.9472-37.856 6.0928-13.1328 9.7216-27.6736 9.7216-43.1552C614.6112 46.4832 568.1984 0 511.1168 0c-57.0688 0-103.456 46.4832-103.456 103.648 0 15.3472 3.5456 29.8816 9.568 42.944-2.6752 0.6592-5.824 1.1712-8.192 1.8368-25.3248 8.7872-50.176 21.696-74.464 38.7264-24.1536 17.4912-45.1648 38.3552-62.592 61.7408-18.3424 24.5632-33.0752 52.8192-43.7312 83.8976-11.328 32.1728-16.96 68.2624-16.96 107.2064 0 32.7616-4.7168 64.5696-13.9968 94.2144-10.1568 31.8784-22.176 62.336-35.744 90.6624-12.9728 27.2448-27.3984 53.6896-44.0192 80.64-16.512 26.5728-30.7264 50.5472-41.9904 70.5344-20.384 31.7312-12.384 58.2656-5.7344 70.0992 11.2512 19.6096 30.08 32.6848 53.1648 32.6848l771.3152 0c10.5856 0 21.0368-5.1648 30.144-10.5472 9.408-5.1648 17.4528-13.9392 23.136-22.7392 6.4512-9.728 10.1504-21.4848 10.8032-33.9968C959.2832 796.7296 954.56 781.9072 944.6976 768.768L944.6976 768.768 944.6976 768.768zM511.2 72.5888c17.024 0 30.9504 13.8688 30.9504 30.9952 0 17.1328-13.9264 31.0016-30.9504 31.0016-17.0304 0-30.9568-13.9456-30.9568-31.0016C480.2496 86.5344 494.0992 72.5888 511.2 72.5888L511.2 72.5888 511.2 72.5888zM144.3904 806.0992c10.2144 0 21.7344-39.1552 34.7456-60.1408 18.1056-29.28 33.7152-59.04 47.776-88.6848 14.9568-31.1424 28.224-65.2864 39.5072-100.576 11.5392-36.9664 17.3952-76.3584 17.3952-116.4352 0-30.7456 4.352-58.8224 12.9728-83.5328 8.2624-24.1856 19.4432-45.7536 33.2864-64.3456 13.0368-17.568 28.8576-33.2736 46.4896-46.0416 18.4896-12.9984 36.8896-22.592 54.3616-28.704 7.9552-2.304 32.6336-5.0752 75.9296-5.0752 40.5952 0 72.5696 2.2976 74.8288 2.4448 21.0496 6.9824 40.7488 16.768 58.8992 29.4272 18.0608 12.4864 34.0288 28.1152 47.2064 46.272 13.7088 19.104 24.8896 41.1712 33.0688 65.7408 8.1792 24.1856 12.3968 51.9424 12.3968 82.4256 0 38.9504 5.8112 77.6384 17.312 115.0464 11.4112 36.6592 24.9536 71.1104 40.0768 102.1056 15.4752 32.1792 32.0448 64.2752 49.3696 90.6688 13.9264 21.2736 26.5984 59.4048 38.8096 59.4048L144.3904 806.0992 144.3904 806.0992 144.3904 806.0992zM329.9328 951.3728l362.5728 0L692.5056 1024 329.9328 1024 329.9328 951.3728 329.9328 951.3728 329.9328 951.3728zM329.9328 951.3728" p-id="7532"></path></svg>